<?xml version="1.0" encoding="utf-8"?>
<!-- Generator: Adobe Illustrator 22.0.1, SVG Export Plug-In . SVG Version: 6.00 Build 0)  -->
<!DOCTYPE svg PUBLIC "-//W3C//DTD SVG 1.1//EN" "http://www.w3.org/Graphics/SVG/1.1/DTD/svg11.dtd">
<svg version="1.1" style="stroke:#a2a2a2" xmlns="http://www.w3.org/2000/svg" xmlns:xlink="http://www.w3.org/1999/xlink" x="0px"
                                    y="0px" width="112.25px" height="86px" viewBox="0 0 112.25 86" enable-background="new 0 0 112.25 86"
                                    xml:space="preserve">
                                    <path fill="none" stroke="#484F59" stroke-width="3" d="M14.939,58.326V5.998c0-1.555,1.266-2.82,2.818-2.82h76.879 c1.557,0,2.819,1.266,2.819,2.82v52.328"
                                        style="stroke-dasharray: 190.391, 190.391; stroke-dashoffset: 0;"></path>
                                    <path fill="none" stroke="#484F59" stroke-width="3" d="M60.752,63.892h8.499h34.073c2.721,0,6.424-2.765,6.424-2.765v-3.061H65.237 h-0.585c-0.424,1.465-1.76,1.434-3.361,1.434"
                                        style="stroke-dasharray: 101.812, 101.812; stroke-dashoffset: 0;"></path>
                                    <path fill="none" stroke="#484F59" stroke-width="3" d="M51.103,59.5c-1.602,0-2.938,0.031-3.361-1.434h-0.585H2.645v3.061 c0,0,3.702,2.765,6.423,2.765h34.073h8.11"
                                        style="stroke-dasharray: 101.423, 101.423; stroke-dashoffset: 0;"></path>
                                    <g>
                                        <path fill="none" stroke="#484F59" stroke-width="3" stroke-linejoin="round" d="M53.127 58.805 53.126 50.816" style="stroke-dasharray: 7.989, 7.989; stroke-dashoffset: 0;"></path>
                                        <path fill="none" stroke="#484F59" stroke-width="3" stroke-linejoin="round" d="M59.268 50.816 59.268 58.805" style="stroke-dasharray: 7.989, 7.989; stroke-dashoffset: 0;"></path>
                                    </g>
                                    <g>
                                        <path fill="none" stroke="#484F59" stroke-width="3" stroke-linejoin="round" d="M56.197,51.808" style="stroke-dasharray: 0, 0; stroke-dashoffset: 0;"></path>
                                    </g>
                                    <path fill="none" stroke="#484F59" stroke-width="3" stroke-linejoin="round" d="M77.754,30.818 c-0.004-5.764-2.246-11.182-6.315-15.248c-4.076-4.078-9.506-6.319-15.286-6.309c-5.753,0.018-11.159,2.26-15.211,6.314 c-8.404,8.41-8.404,22.096,0.009,30.496c4.081,4.082,9.515,6.32,15.295,6.311c5.753-0.014,11.149-2.258,15.204-6.311 C75.518,42.004,77.759,36.588,77.754,30.818z M56.239,47.41c-4.46,0.01-8.635-1.715-11.775-4.852
        c-6.478-6.468-6.479-16.996-0.005-23.467c3.122-3.121,7.278-4.846,11.706-4.854c4.449-0.012,8.627,1.712,11.763,4.846
        c3.133,3.132,4.859,7.295,4.857,11.738c0.002,4.437-1.724,8.607-4.848,11.74C64.817,45.682,60.665,47.404,56.239,47.41z"
                                        style="stroke-dasharray: 239.795, 239.795; stroke-dashoffset: 0;"></path>
                                    <path fill="none" stroke="#484F59" stroke-width="3" stroke-linejoin="round" d="M52.074,34.086" style="stroke-dasharray: 0, 0; stroke-dashoffset: 0;"></path>
                                    <path fill="none" stroke="#484F59" stroke-width="3" stroke-linejoin="round" d="M67.407,18.752" style="stroke-dasharray: 0, 0; stroke-dashoffset: 0;"></path>
                                    <path fill="none" stroke="#484F59" stroke-width="3" stroke-linejoin="round" d="M60.676,80.909c0,0-1.25,1.993-4.479,2.093 c-3.229,0.099-4.479-2.093-4.479-2.093V58.096h8.959V80.909z"
                                        style="stroke-dasharray: 64.8713, 64.8713; stroke-dashoffset: 0;"></path>
                                    <path fill="none" stroke="#484F59" stroke-width="3" d="M73.152,53.037 91.428,53.037 91.428,9.262 20.965,9.262 20.965,53.037 40.121,53.037 "
                                        style="stroke-dasharray: 195.445, 195.445; stroke-dashoffset: 0;"></path>
                                </svg>
