<?xml version="1.0" encoding="utf-8"?>
<!-- Generator: Adobe Illustrator 22.0.1, SVG Export Plug-In . SVG Version: 6.00 Build 0)  -->
<!DOCTYPE svg PUBLIC "-//W3C//DTD SVG 1.1//EN" "http://www.w3.org/Graphics/SVG/1.1/DTD/svg11.dtd">
<svg version="1.1" style="stroke:#a2a2a2" xmlns="http://www.w3.org/2000/svg" xmlns:xlink="http://www.w3.org/1999/xlink" x="0px"
                                    y="0px" width="111.334px" height="79.167px" viewBox="0 0 111.334 79.167" enable-background="new 0 0 111.334 79.167"
                                    xml:space="preserve">
                                    <g>
                                        <path fill="none" stroke="#484F59" stroke-width="3" d="M68.589,16.073h25.654c1.557,0,2.819,1.266,2.819,2.82v52.328" style="stroke-dasharray: 82.4108, 82.4108; stroke-dashoffset: 0;"></path>
                                        <path fill="none" stroke="#484F59" stroke-width="3" d="M14.546,71.222V18.894c0-1.555,1.266-2.82,2.818-2.82h26.061" style="stroke-dasharray: 82.8162, 82.8162; stroke-dashoffset: 0;"></path>
                                    </g>
                                    <path fill="none" stroke="#484F59" stroke-width="3" d="M109.355,74.022v-3.06H64.844h-0.585c-0.424,1.463-1.76,1.434-3.361,1.434 H50.71c-1.602,0-2.938,0.029-3.361-1.434h-0.585H2.252v3.06c0,0,3.702,2.764,6.423,2.764h34.073h26.11h34.073
        C105.652,76.786,109.355,74.022,109.355,74.022z" style="stroke-dasharray: 222.92, 222.92; stroke-dashoffset: 0;"></path>
                                    <path fill="none" stroke="#484F59" stroke-width="3" d="M57.667,43.362h17.313v12.431H57.667V43.362z" style="stroke-dasharray: 59.488, 59.488; stroke-dashoffset: 0;"></path>
                                    <path fill="none" stroke="#484F59" stroke-width="3" d="M80.304,35.877 55.959,11.377 31.304,35.877 31.304,40.127	31.304,40.127 31.304,66.39 37.304,66.39 37.304,43.39 52.423,43.39 52.423,66.39 80.304,66.39 80.304,40.127 80.304,40.127 Z"
                                        style="stroke-dasharray: 225.323, 225.323; stroke-dashoffset: 0;"></path>
                                    <path fill="none" stroke="#484F59" stroke-width="3" d="M57.667,43.362h17.313v12.431H57.667V43.362z" style="stroke-dasharray: 59.488, 59.488; stroke-dashoffset: 0;"></path>
                                    <path fill="none" stroke="#484F59" stroke-width="3" d="M20.25,40.007 56.202,3.438 92.396,40.007 " style="stroke-dasharray: 102.734, 102.734; stroke-dashoffset: 0;"></path>
                                    <path fill="none" stroke="#484F59" stroke-width="3" d="M37.304 66.39 52.423 66.39" style="stroke-dasharray: 15.119, 15.119; stroke-dashoffset: 0;"></path>
                                </svg>
