<?xml version="1.0" encoding="utf-8"?>
<!-- Generator: Adobe Illustrator 22.0.1, SVG Export Plug-In . SVG Version: 6.00 Build 0)  -->
<!DOCTYPE svg PUBLIC "-//W3C//DTD SVG 1.1//EN" "http://www.w3.org/Graphics/SVG/1.1/DTD/svg11.dtd">
<svg version="1.1" style="stroke:#a2a2a2" xmlns="http://www.w3.org/2000/svg" xmlns:xlink="http://www.w3.org/1999/xlink" x="0px"
                                    y="0px" width="102.5px" height="87.5px" viewBox="0 0 102.5 87.5" enable-background="new 0 0 102.5 87.5"
                                    xml:space="preserve">
                                    <path fill="none" stroke="#484F59" stroke-width="3" d="M93.216,30.249V4.968c0-1.369-1.115-2.484-2.486-2.484H4.981 c-1.369,0-2.484,1.115-2.484,2.484v53.064h71.866"
                                        style="stroke-dasharray: 243.764, 243.764; stroke-dashoffset: 0;"></path>
                                    <path fill="none" stroke="#484F59" stroke-width="3" d="M75.241,51.854 9.579,51.854 9.579,9.007 87.784,9.007 87.784,30.198 "
                                        style="stroke-dasharray: 207.905, 207.905; stroke-dashoffset: 0;"></path>
                                    <path fill="none" stroke="#484F59" stroke-width="3" d="M74.171,58.179H2.497v7.654c0,1.466,1.504,3.099,2.971,3.099h68.703"
                                        style="stroke-dasharray: 152.712, 152.712; stroke-dashoffset: 0;"></path>
                                    <path fill="none" stroke="#484F59" stroke-width="3" stroke-linejoin="round" d="M100.361,78.383c0,0.868-0.703,1.572-1.57,1.572 H76.779c-0.869,0-1.572-0.704-1.572-1.572v-46.38c0-0.869,0.703-1.572,1.572-1.572h22.012c0.867,0,1.57,0.703,1.57,1.572V78.383z"
                                        style="stroke-dasharray: 146.66, 146.66; stroke-dashoffset: 0;"></path>
                                    <path fill="none" stroke="#484F59" stroke-width="3" stroke-linejoin="round" d="M62.367,83.884c0,0.868-0.757,1.572-1.69,1.572 H36.973c-0.937,0-1.693-0.704-1.693-1.572l4.308-13.38c0-0.869,0.757-1.572,1.693-1.572h15.089c0.934,0,1.69,0.703,1.69,1.572 L62.367,83.884z"
                                        style="stroke-dasharray: 77.164, 77.164; stroke-dashoffset: 0;"></path>
                                    <path fill="none" stroke="#484F59" stroke-width="3" stroke-linejoin="round" d="M86.33 74.763 89.238 74.763" style="stroke-dasharray: 2.908, 2.908; stroke-dashoffset: 0;"></path>
                                    <g>
                                        <path fill="none" stroke="#484F59" stroke-width="3" stroke-miterlimit="10" d="M71.097,23.176 64.024,16.11
            56.956,23.176 	" style="stroke-dasharray: 19.992, 19.992; stroke-dashoffset: 0;"></path>
                                        <path fill="none" stroke="#484F59" stroke-width="3" stroke-miterlimit="10" d="M64.024 18.03 64.028 45.585" style="stroke-dasharray: 27.555, 27.555; stroke-dashoffset: 0;"></path>
                                    </g>
                                    <g>
                                        <path fill="none" stroke="#484F59" stroke-width="3" stroke-miterlimit="10" d="M82.183,53.649 87.784,59.247 93.386,53.649"
                                            style="stroke-dasharray: 15.8385, 15.8385; stroke-dashoffset: 0;"></path>
                                        <path fill="none" stroke="#484F59" stroke-width="3" stroke-miterlimit="10" d="M87.784 57.724 87.782 38.272" style="stroke-dasharray: 19.452, 19.452; stroke-dashoffset: 0;"></path>
                                    </g>
                                </svg>
